<svg version="1.1" id="Layer_1" xmlns="http://www.w3.org/2000/svg" xmlns:xlink="http://www.w3.org/1999/xlink" x="0px" y="0px"
	 width="100%" viewBox="0 0 176 156" enable-background="new 0 0 176 156" xml:space="preserve">
<path fill="#000000" opacity="1.000000" stroke="none" 
	d="
M1.000000,57.000000 
	C1.000000,38.000004 1.000000,19.500011 1.000000,1.000008 
	C58.333313,1.000000 115.666718,1.038905 172.999710,0.902942 
	C176.424545,0.894820 177.107483,1.574725 177.097595,5.000211 
	C176.955078,54.499783 176.966385,103.999969 177.083130,153.499680 
	C177.090179,156.482285 176.483017,157.088806 173.499954,157.082855 
	C117.166862,156.970367 60.833427,156.970413 4.500332,157.082794 
	C1.518084,157.088730 0.902595,156.484421 0.915289,153.499802 
	C1.051391,121.500336 1.000000,89.500053 1.000000,57.000000 
z"/>
<path fill="#393637" opacity="1.000000" stroke="none" 
	d="
M63.204250,40.374771 
	C62.970871,39.952362 62.884285,39.595181 62.959370,39.427460 
	C62.207867,38.019554 60.929848,38.526863 59.847530,38.521324 
	C51.551857,38.478870 43.254913,38.568195 34.960571,38.455505 
	C32.460018,38.421532 31.432125,39.090660 31.448477,41.794430 
	C31.547815,58.219677 31.538925,74.646049 31.454960,91.071472 
	C31.441994,93.607529 32.158428,94.658585 34.827095,94.549927 
	C38.634880,94.394882 42.456947,94.430206 46.689301,94.792633 
	C47.106628,95.023293 46.982178,95.014053 46.985363,94.951736 
	C48.101723,103.329102 47.255314,111.803436 47.234596,120.709717 
	C38.741032,121.909424 30.431690,121.289185 22.134007,121.503151 
	C20.233143,121.552177 19.362377,120.753578 19.503325,118.846634 
	C19.539946,118.351135 19.502050,117.849373 19.502539,117.350479 
	C19.534279,84.922195 19.437231,52.493843 19.731853,19.602604 
	C24.316448,18.967495 28.571306,17.199526 33.505463,17.960346 
	C34.833019,17.358324 35.858040,17.507095 36.843998,17.507996 
	C74.626221,17.542519 112.408531,17.417795 150.633728,17.791645 
	C151.076767,18.017469 151.011276,17.995180 151.026154,17.963943 
	C152.089569,26.508053 151.287369,35.115921 151.469803,43.706997 
	C151.592926,49.505497 151.547592,55.309879 151.336548,61.594456 
	C145.283676,65.567467 139.076614,64.243820 132.493042,62.830032 
	C130.793594,56.687019 131.842957,50.762665 131.501083,44.885921 
	C131.386917,42.923378 131.784164,40.935017 130.784271,38.776066 
	C117.358566,38.429123 104.352089,38.520065 90.866394,38.556252 
	C88.680161,40.075645 89.549881,42.044231 89.542885,43.752739 
	C89.437088,69.577530 89.579956,95.402809 89.212372,121.661819 
	C88.988556,122.095856 88.984612,121.987419 89.038773,121.984192 
	C78.526413,123.156609 67.925652,122.187386 56.874676,122.449905 
	C54.659611,120.579933 55.850155,118.320511 55.548798,115.834793 
	C57.614891,113.540016 60.100231,114.965904 62.677116,114.199364 
	C63.039780,113.951149 63.033764,114.037910 62.990280,114.038124 
	C63.677555,113.190460 63.496132,112.157043 63.494774,111.177292 
	C63.462231,87.717270 63.587280,64.257103 63.204250,40.374771 
z"/>
<path fill="#EC3338" opacity="1.000000" stroke="none" 
	d="
M131.775726,61.680115 
	C138.099960,62.044086 144.093109,62.094326 150.550262,62.068253 
	C151.190460,61.788147 151.366638,61.584358 151.832947,61.661789 
	C152.123093,61.943005 152.070755,62.035004 152.023163,62.011894 
	C155.546448,63.239357 159.290802,61.941872 163.164032,63.121971 
	C163.557785,88.690552 163.503525,113.869255 163.330170,139.520355 
	C162.625351,140.366531 161.993881,140.471771 161.315399,140.498840 
	C155.516388,140.730194 155.517899,140.736572 155.501892,135.082657 
	C155.451706,117.346512 155.604004,99.610077 155.162140,81.461174 
	C154.188629,81.038353 153.478241,81.028481 152.414459,81.055939 
	C151.830719,81.274040 151.600403,81.454826 151.004471,81.877853 
	C145.271179,83.914963 139.749405,82.709167 133.897736,82.890793 
	C133.233719,82.758446 132.974380,82.694420 132.330475,82.575691 
	C131.696060,82.500313 131.446182,82.479622 130.830688,82.424789 
	C129.008041,82.287720 127.563225,81.042526 125.894554,82.615097 
	C125.592468,83.097527 125.486984,83.308693 125.256416,83.868713 
	C123.755066,93.805641 124.817726,103.445045 124.554146,113.492409 
	C124.964401,116.285889 125.403900,118.643661 124.347900,121.403854 
	C122.908470,124.315346 123.730415,126.999947 123.494629,130.025085 
	C123.477295,130.752960 123.462585,131.043884 123.229591,131.713318 
	C123.011314,132.091827 123.010483,132.010284 123.051254,132.010803 
	C120.173721,132.998077 117.164703,132.286591 113.761543,132.440887 
	C110.859009,129.945572 112.586281,126.751175 111.670441,123.579941 
	C111.381950,122.890869 111.249168,122.620804 110.913147,121.943146 
	C109.741913,119.106270 109.818489,116.684090 110.949127,113.836929 
	C111.949921,101.665947 111.283890,89.910591 111.501999,77.688721 
	C111.521362,72.789680 111.462364,68.366074 111.654297,63.487110 
	C117.634888,61.848774 123.568130,62.863369 129.889313,62.274483 
	C130.324554,62.102139 130.535370,61.961388 130.660797,61.979614 
	C131.005707,61.787354 131.225174,61.576866 131.775726,61.680115 
z"/>
<path fill="#5E5C5C" opacity="1.000000" stroke="none" 
	d="
M19.588373,19.392391 
	C19.939777,51.032444 20.091621,82.926147 19.868601,114.817230 
	C19.832243,120.016403 21.415453,121.419479 26.357635,121.101036 
	C32.810093,120.685280 39.307453,120.966454 46.234322,120.942848 
	C46.923473,121.031906 47.163799,121.125900 47.241745,121.571266 
	C38.939354,121.948311 30.798857,121.931686 22.659655,122.026466 
	C20.338104,122.053490 18.953089,121.652878 18.966072,118.814423 
	C19.117268,85.758240 19.178759,52.701653 19.588373,19.392391 
z"/>
<path fill="#EFEFEF" opacity="1.000000" stroke="none" 
	d="
M150.886505,17.615625 
	C112.348862,18.043163 73.620956,18.068857 34.423164,18.050797 
	C34.683956,16.226501 36.250313,17.041128 37.408630,17.039698 
	C74.679344,16.993618 111.950127,17.003386 149.220901,17.014856 
	C149.712692,17.015009 150.204453,17.144604 150.886505,17.615625 
z"/>
<path fill="#EEEEEE" opacity="1.000000" stroke="none" 
	d="
M46.912460,94.622543 
	C43.280548,95.016548 39.438095,94.787605 35.633183,95.068047 
	C32.110126,95.327698 30.741758,94.539070 30.804754,90.556358 
	C31.059961,74.421967 31.000782,58.280270 30.837730,42.143490 
	C30.803621,38.768005 31.545645,37.379578 35.194550,37.611275 
	C44.441093,38.198414 53.744793,36.849064 63.006748,38.784897 
	C53.567890,39.175560 44.099834,39.160782 34.635811,38.958054 
	C32.291576,38.907833 31.953220,39.871609 31.960854,41.882263 
	C32.023342,58.340927 32.036350,74.800140 31.948484,91.258575 
	C31.936646,93.476051 32.619167,94.095879 34.774864,94.043182 
	C38.752174,93.945961 42.736744,94.145752 46.912460,94.622543 
z"/>
<path fill="#CBCACB" opacity="1.000000" stroke="none" 
	d="
M89.382965,121.891975 
	C88.994026,96.061958 88.994064,70.028053 89.016678,43.994171 
	C89.018257,42.180229 89.187363,40.366432 89.650833,38.352654 
	C90.223289,38.306431 90.423485,38.460117 90.322433,38.843086 
	C90.014320,64.793480 90.011940,90.514595 89.991058,116.235703 
	C89.989578,118.053223 89.851784,119.870636 89.382965,121.891975 
z"/>
<path fill="#F58D90" opacity="1.000000" stroke="none" 
	d="
M162.603485,140.140350 
	C162.891602,114.610550 162.929581,89.343948 162.927963,63.620529 
	C162.711716,62.981117 162.535080,62.798531 162.654572,62.376110 
	C164.206757,62.208416 163.988785,63.174473 163.987015,63.935104 
	C163.927780,89.509644 163.855560,115.084152 163.355621,140.754364 
	C162.735153,140.701218 162.544235,140.552383 162.603485,140.140350 
z"/>
<path fill="#878586" opacity="1.000000" stroke="none" 
	d="
M62.982666,40.424316 
	C64.391251,40.856541 63.969818,42.315361 63.971230,43.576855 
	C63.996395,66.071686 63.991459,88.566551 63.970833,111.061401 
	C63.970081,111.878975 63.743488,112.696327 63.284473,113.776062 
	C62.962685,89.657654 62.978569,65.276962 62.982666,40.424316 
z"/>
<path fill="#F26166" opacity="1.000000" stroke="none" 
	d="
M162.423767,139.914246 
	C162.853638,139.877151 162.907257,140.362457 162.916656,140.606262 
	C155.000076,141.226715 155.001556,141.226715 154.999695,133.352280 
	C154.995636,116.225975 154.989914,99.099663 154.941940,81.510788 
	C156.682404,82.648422 155.957932,84.778145 155.964935,86.678680 
	C156.023132,102.447342 156.169937,118.219322 155.893829,133.983353 
	C155.810287,138.752472 157.106781,140.865524 162.423767,139.914246 
z"/>
<path fill="#8C8A8B" opacity="1.000000" stroke="none" 
	d="
M152.071716,61.480629 
	C151.939514,61.979084 151.755951,62.015163 151.293335,62.021591 
	C150.986618,47.619015 150.958939,33.246094 150.986145,18.402943 
	C152.874161,19.107777 151.937622,20.938488 151.948502,22.426111 
	C152.042511,35.289650 152.013031,48.154083 152.071716,61.480629 
z"/>
<path fill="#DEDDDD" opacity="1.000000" stroke="none" 
	d="
M90.487473,39.039452 
	C90.021179,39.072369 90.055862,38.612625 90.039474,38.382683 
	C103.373932,38.077808 116.724770,38.002876 130.530640,38.044106 
	C131.141357,38.315067 131.297058,38.469868 131.213623,38.851120 
	C117.634270,39.053898 104.294022,39.030216 90.487473,39.039452 
z"/>
<path fill="#8C8A8B" opacity="1.000000" stroke="none" 
	d="
M150.697937,81.312729 
	C151.196136,80.931877 151.374908,80.925285 151.807373,81.005966 
	C152.033356,94.431793 152.005646,107.770325 151.931976,121.578552 
	C151.556442,122.059929 151.226852,122.071617 150.525177,121.755302 
	C149.075974,120.020813 148.971161,118.366417 148.958572,116.693565 
	C148.883682,106.739410 148.891083,96.785179 148.953827,86.831009 
	C148.965424,84.991653 149.039047,83.162041 150.697937,81.312729 
z"/>
<path fill="#FBD4D5" opacity="1.000000" stroke="none" 
	d="
M111.422211,77.502968 
	C111.883606,89.084785 111.966492,101.125938 111.956169,113.634247 
	C111.665977,114.174667 111.468987,114.247925 111.004791,114.153885 
	C110.675949,113.785667 110.614319,113.584740 110.754776,113.141846 
	C110.985809,101.254021 111.014763,89.608162 111.422211,77.502968 
z"/>
<path fill="#E2E1E1" opacity="1.000000" stroke="none" 
	d="
M55.874435,121.612358 
	C66.837433,121.896843 77.490837,121.922089 88.618591,121.964142 
	C88.678261,123.302887 87.550102,122.986031 86.631050,122.984138 
	C76.213860,122.962708 65.796730,122.912125 55.253723,122.450813 
	C55.273521,121.805885 55.419182,121.579498 55.874435,121.612358 
z"/>
<path fill="#CBCACB" opacity="1.000000" stroke="none" 
	d="
M150.514206,121.549667 
	C151.046799,121.902351 151.214798,121.930687 151.634399,122.003632 
	C150.026703,124.202156 147.595230,122.849380 145.486923,122.916924 
	C138.663452,123.135529 131.828629,123.000206 124.534073,123.014526 
	C123.969849,122.717224 123.869720,122.406647 124.065887,121.704636 
	C126.346581,119.699089 128.747559,119.816772 131.028229,119.976440 
	C137.400269,120.422539 143.922455,118.635239 150.514206,121.549667 
z"/>
<path fill="#DEDDDD" opacity="1.000000" stroke="none" 
	d="
M47.476414,121.747696 
	C47.010738,121.759560 46.942112,121.596489 46.778320,121.185669 
	C46.758080,112.571274 46.833012,104.204628 46.948246,95.363708 
	C49.126755,96.748695 47.870621,99.193390 47.921059,101.316452 
	C48.081375,108.064369 47.914127,114.820061 47.476414,121.747696 
z"/>
<path fill="#D5D3D4" opacity="1.000000" stroke="none" 
	d="
M130.985626,39.541176 
	C130.974518,39.077576 130.961899,38.618698 130.973785,38.389481 
	C133.216980,40.356548 131.940414,43.115280 132.041992,45.592064 
	C132.253128,50.739552 132.106033,55.901730 132.106506,61.525856 
	C131.886856,62.031288 131.666885,62.068726 131.116577,62.052002 
	C130.856400,54.666817 130.926559,47.335796 130.985626,39.541176 
z"/>
<path fill="#F17679" opacity="1.000000" stroke="none" 
	d="
M129.825195,62.058060 
	C124.654724,64.063683 118.791748,62.459435 112.588364,63.069275 
	C111.934952,62.960541 111.740173,62.820557 111.790146,62.416862 
	C117.798546,62.106758 123.562202,62.060368 129.825195,62.058060 
z"/>
<path fill="#FBD4D5" opacity="1.000000" stroke="none" 
	d="
M111.661240,122.831802 
	C112.192886,125.718788 112.466370,128.430817 112.958969,131.523941 
	C112.999657,132.096466 112.821236,132.287872 112.303299,132.282349 
	C109.783096,129.585999 111.526100,126.610947 110.940239,123.474762 
	C111.072556,122.909134 111.237823,122.782982 111.661240,122.831802 
z"/>
<path fill="#F9B7B9" opacity="1.000000" stroke="none" 
	d="
M111.608559,62.258137 
	C112.034897,62.153149 112.061264,62.628895 112.095497,62.864708 
	C112.075142,67.441048 112.020554,71.781578 111.883347,76.582870 
	C111.800720,77.043633 111.490150,77.047096 111.334923,77.042877 
	C111.180542,72.146812 111.181381,67.254967 111.608559,62.258137 
z"/>
<path fill="#CBCACB" opacity="1.000000" stroke="none" 
	d="
M111.934235,122.758423 
	C111.750832,123.016838 111.582275,123.026909 111.160507,123.036133 
	C104.702057,122.960388 104.702057,122.960388 105.892502,114.369324 
	C107.946754,116.906410 108.102455,120.237991 111.571815,121.773071 
	C111.805901,122.033539 111.949081,122.510078 111.934235,122.758423 
z"/>
<path fill="#EFEFEF" opacity="1.000000" stroke="none" 
	d="
M112.158875,132.463181 
	C112.168175,132.069260 112.372566,132.053116 112.877518,131.971008 
	C116.183281,131.883545 119.188499,131.862030 122.642868,131.925934 
	C119.655685,134.138931 115.933876,132.571640 112.158875,132.463181 
z"/>
<path fill="#F17679" opacity="1.000000" stroke="none" 
	d="
M162.501160,62.076477 
	C162.943451,62.307590 162.936172,62.478909 162.908630,62.906967 
	C159.441162,62.970371 155.993958,62.777039 152.261154,62.286247 
	C155.334229,61.998085 158.692917,62.007381 162.501160,62.076477 
z"/>
<path fill="#F9B7B9" opacity="1.000000" stroke="none" 
	d="
M123.932068,121.992905 
	C124.071136,122.226921 124.048508,122.627739 124.059235,122.827774 
	C124.040970,125.400444 124.011971,127.773071 123.904701,130.583008 
	C123.703331,131.145615 123.580238,131.270920 123.271759,131.209015 
	C123.103752,128.321106 123.121147,125.620422 123.232803,122.480133 
	C123.482376,121.946655 123.637680,121.852768 123.932068,121.992905 
z"/>
<path fill="#B6B4B5" opacity="1.000000" stroke="none" 
	d="
M56.121643,121.452286 
	C56.008522,121.901802 55.833015,121.932014 55.392685,121.997253 
	C55.136581,119.482841 55.145302,116.933411 55.552410,114.262413 
	C56.177032,114.271698 56.403267,114.402550 56.359299,114.817451 
	C56.079147,117.078659 56.069202,119.055817 56.121643,121.452286 
z"/>
<path fill="#878586" opacity="1.000000" stroke="none" 
	d="
M56.496948,115.035599 
	C56.089096,115.101494 56.004486,114.623398 55.977638,114.382126 
	C58.019146,114.107704 60.087498,114.074554 62.597816,113.996277 
	C61.230923,115.712975 58.933502,114.532074 56.496948,115.035599 
z"/>
<path fill="#EFEFEF" opacity="1.000000" stroke="none" 
	d="
M110.563004,112.945847 
	C110.956856,112.899879 110.957161,113.392166 110.970055,113.637970 
	C109.747078,115.362244 108.295204,115.359306 106.344040,114.212616 
	C105.968811,113.919792 105.940102,113.972321 105.964088,113.988998 
	C106.977547,112.000771 108.797165,113.419312 110.563004,112.945847 
z"/>
<path fill="#FBD4D5" opacity="1.000000" stroke="none" 
	d="
M123.003418,131.284821 
	C123.086365,131.021805 123.456383,131.017807 123.641403,131.019043 
	C123.727257,131.327408 123.628090,131.634537 123.270111,132.016739 
	C122.981033,131.910492 122.950745,131.729156 123.003418,131.284821 
z"/>
<path fill="#393536" opacity="1.000000" stroke="none" 
	d="
M124.524567,122.135536 
	C124.071136,122.226921 123.710564,122.083771 123.518814,122.062157 
	C123.312981,119.714478 123.298897,117.388412 123.302658,114.629669 
	C123.461365,113.992432 123.602234,113.787872 124.018097,113.333069 
	C125.752357,112.310814 127.691833,112.720894 129.066971,110.906311 
	C130.890549,107.830132 130.329025,104.779053 130.528595,101.816277 
	C130.982468,95.078102 129.382095,88.238754 131.814667,81.261963 
	C138.101120,80.884483 144.095459,80.831688 150.553558,80.858688 
	C151.001892,94.278107 150.986435,107.617744 150.924896,121.415695 
	C142.245209,121.930733 133.611603,121.987442 124.524567,122.135536 
z"/>
<path fill="#000000" opacity="1.000000" stroke="none" 
	d="
M130.001923,80.754196 
	C130.449066,80.919624 130.536301,81.031082 130.593536,80.989449 
	C132.244904,82.042885 131.440018,83.685570 131.450806,85.044655 
	C131.521896,93.988052 131.522522,102.932503 131.389526,112.357773 
	C129.191208,114.152534 126.878204,113.238968 124.229630,113.207962 
	C123.177055,102.596832 123.599823,92.200966 123.823456,81.388863 
	C124.072670,80.969444 123.977760,80.979225 123.979721,81.026894 
	C125.758705,79.987213 127.689903,80.668556 130.001923,80.754196 
z"/>
<path fill="#433B3C" opacity="1.000000" stroke="none" 
	d="
M106.020752,114.369370 
	C107.365707,113.965096 108.762596,114.010399 110.571220,113.969742 
	C110.982948,113.883774 111.407104,114.058723 111.635033,114.080063 
	C111.903648,116.455620 111.944336,118.809837 111.895462,121.598793 
	C105.908241,122.005150 105.908241,122.005150 106.020752,114.369370 
z"/>
<path fill="#F9B7B9" opacity="1.000000" stroke="none" 
	d="
M123.697876,81.188232 
	C124.050323,91.315735 124.027977,101.662033 124.027382,112.472565 
	C124.241699,113.097748 124.434265,113.258682 124.344650,113.668777 
	C124.062462,113.917938 123.718658,114.133080 123.519577,114.165039 
	C122.803123,103.266960 122.783852,92.336967 123.697876,81.188232 
z"/>
<path fill="#D5D3D4" opacity="1.000000" stroke="none" 
	d="
M130.674713,113.155121 
	C130.972168,102.559494 130.968369,92.205460 130.807663,81.399620 
	C130.893204,80.910385 131.135635,80.872963 131.742432,80.886414 
	C131.999969,91.814919 131.893143,102.692558 131.380829,113.725426 
	C130.774734,113.719345 130.574097,113.558029 130.674713,113.155121 
z"/>
<path fill="#F58D90" opacity="1.000000" stroke="none" 
	d="
M130.132843,80.657219 
	C128.594437,80.947853 126.739815,80.976089 124.433434,81.039444 
	C125.740158,79.247162 127.809212,80.085648 130.132843,80.657219 
z"/>
<path fill="#EFEFEF" opacity="1.000000" stroke="none" 
	d="
M130.543365,112.953300 
	C130.975983,112.913528 130.954086,113.397095 130.964722,113.638878 
	C128.953033,113.947456 126.930702,114.014252 124.485413,113.999496 
	C124.062462,113.917938 124.055717,113.426888 124.052429,113.181854 
	C126.069679,112.955566 128.090225,112.974319 130.543365,112.953300 
z"/>
</svg>